<?xml version="1.0" encoding="UTF-8"?>
<svg width="16px" height="16px" viewBox="0 0 16 16" version="1.1" xmlns="http://www.w3.org/2000/svg" xmlns:xlink="http://www.w3.org/1999/xlink">
    <title>Auf Lager</title>
    <g id="Page-1" stroke="none" stroke-width="1" fill="none" fill-rule="evenodd">
        <g id="Artikelliste" transform="translate(-79.000000, -392.000000)" fill="#F8E01C" fill-rule="nonzero">
            <g id="Auf-Lager" transform="translate(79.000000, 392.000000)">
                <g id="home">
                    <path d="M15.7817812,6.84003125 L8.51784375,0.23646875 L8.4484375,0.173375 C8.40075,0.13003125 8.348375,0.0948125 8.29303125,0.06771875 C8.2905625,0.06653125 8.288,0.06565625 8.28553125,0.06446875 C8.10515625,-0.02109375 7.8948125,-0.02109375 7.71440625,0.06446875 C7.7119375,0.065625 7.709375,0.0665 7.70690625,0.06771875 C7.6515625,0.0948125 7.5991875,0.13003125 7.5515,0.173375 L7.48309375,0.2355625 L0.21821875,6.84003125 C-0.05421875,7.0876875 -0.0743125,7.50934375 0.173375,7.78178125 C0.42103125,8.05421875 0.8426875,8.0743125 1.115125,7.826625 L1.33334375,7.62825 L1.33334375,15.3333437 C1.33334375,15.7015313 1.6318125,16 1.9999904,16 L5.33334375,16 L10.6666875,16 L13.9999904,16 C14.3681875,16 14.6666562,15.7015313 14.6666562,15.3333438 L14.6666562,7.62825 L14.884875,7.826625 C15.1573125,8.0743125 15.5789375,8.05421875 15.826625,7.78178125 C16.0743125,7.50934375 16.0542187,7.08771875 15.7817812,6.84003125 Z M13.3333437,14.6666875 L2.66665625,14.6666875 L2.66665625,6.41625 L8,1.56765625 L13.3333437,6.41625 L13.3333437,14.6666875 Z" id="Shape"></path>
                </g>
                <g id="Group" transform="translate(4.466667, 6.666667)">
                    <g id="x-circle" transform="translate(0.533333, 0.000000)">
                        <path d="M5.22859548,-0.171404521 C5.48894501,-0.431754049 5.91105499,-0.431754049 6.17140452,-0.171404521 C6.41172716,0.0689181203 6.43021352,0.447072158 6.22686359,0.708599629 L6.17140452,0.771404521 L0.771404521,6.17140452 C0.511054993,6.43175405 0.088945007,6.43175405 -0.171404521,6.17140452 C-0.411727162,5.93108188 -0.430213519,5.55292784 -0.226863592,5.29140037 L-0.171404521,5.22859548 L5.22859548,-0.171404521 Z" id="Shape"></path>
                        <path d="M-0.171404521,-0.171404521 C0.0689181203,-0.411727162 0.447072158,-0.430213519 0.708599629,-0.226863592 L0.771404521,-0.171404521 L6.17140452,5.22859548 C6.43175405,5.48894501 6.43175405,5.91105499 6.17140452,6.17140452 C5.93108188,6.41172716 5.55292784,6.43021352 5.29140037,6.22686359 L5.22859548,6.17140452 L-0.171404521,0.771404521 C-0.431754049,0.511054993 -0.431754049,0.088945007 -0.171404521,-0.171404521 Z" id="Shape"></path>
                    </g>
                </g>
            </g>
        </g>
    </g>
</svg>