<?xml version="1.0" encoding="UTF-8"?>
<svg width="24px" height="24px" viewBox="0 0 24 24" version="1.1" xmlns="http://www.w3.org/2000/svg" xmlns:xlink="http://www.w3.org/1999/xlink">
    <title>Auf Lager</title>
    <g id="Auf-Lager" stroke="none" stroke-width="1" fill="none" fill-rule="evenodd">
        <g fill="#28BEB4" fill-rule="nonzero">
            <g id="download" transform="translate(5.800000, 1.000000)">
                <path d="M10.3041583,11.0733891 C10.7097028,10.6678447 11.3672203,10.6678447 11.7727647,11.0733891 C12.1529627,11.453587 12.176725,12.0552456 11.8440518,12.4631261 L11.7727647,12.5419955 L6.92661089,17.3881493 C6.54641296,17.7683473 5.94475437,17.7921096 5.53687386,17.4594365 L5.4580045,17.3881493 L0.61185065,12.5419955 C0.206306193,12.136451 0.206306193,11.4789336 0.61185065,11.0733891 C0.992048579,10.6931912 1.59370717,10.6694288 2.00158768,11.002102 L2.08045704,11.0733891 L6.19230769,15.1854615 L10.3041583,11.0733891 Z" id="Shape"></path>
                <path d="M6.19230769,0.307692308 C6.73209731,0.307692308 7.17569524,0.719537904 7.22601545,1.24614307 L7.23076923,1.34615385 L7.23076923,16.6538462 C7.23076923,17.2273726 6.76583416,17.6923077 6.19230769,17.6923077 C5.65251807,17.6923077 5.20892015,17.2804621 5.15859994,16.7538569 L5.15384615,16.6538462 L5.15384615,1.34615385 C5.15384615,0.772627375 5.61878122,0.307692308 6.19230769,0.307692308 Z" id="Shape"></path>
            </g>
            <g id="home">
                <path d="M23.6726719,10.2600469 L12.7767656,0.354703125 L12.6726562,0.2600625 C12.601125,0.195046875 12.5225625,0.14221875 12.4395469,0.101578125 C12.4358437,0.099796875 12.432,0.098484375 12.4282969,0.096703125 C12.1577344,-0.031640625 11.8422187,-0.031640625 11.5716094,0.096703125 C11.5679062,0.0984375 11.5640625,0.09975 11.5603594,0.101578125 C11.4773437,0.14221875 11.3987812,0.195046875 11.32725,0.2600625 L11.2246406,0.35334375 L0.327328125,10.2600469 C-0.081328125,10.6315313 -0.11146875,11.2640156 0.2600625,11.6726719 C0.631546875,12.0813281 1.26403125,12.1114688 1.6726875,11.7399375 L2.00001563,11.442375 L2.00001563,23.0000156 C2.00001563,23.5522969 2.44771875,24 3,24 L8.00001562,24 L16.0000312,24 L21,24 C21.5522812,24 21.9999856,23.5522969 21.9999856,23.0000156 L21.9999856,11.442375 L22.3273125,11.7399375 C22.7359687,12.1114688 23.3684062,12.0813281 23.7399375,11.6726719 C24.1114688,11.2640156 24.0813281,10.6315781 23.6726719,10.2600469 Z M20.0000156,22.0000312 L3.99998438,22.0000312 L3.99998438,9.624375 L12,2.35148438 L20.0000156,9.624375 L20.0000156,22.0000312 Z" id="Shape"></path>
            </g>
        </g>
    </g>
</svg>