<?xml version="1.0" encoding="UTF-8"?>
<svg width="16px" height="16px" viewBox="0 0 16 16" version="1.1" xmlns="http://www.w3.org/2000/svg" xmlns:xlink="http://www.w3.org/1999/xlink">
    <title>Auf Lager</title>
    <g id="Page-1" stroke="none" stroke-width="1" fill="none" fill-rule="evenodd">
        <g id="Artikelliste" transform="translate(-79.000000, -590.000000)" fill="#FF2D46" fill-rule="nonzero">
            <g id="Auf-Lager" transform="translate(79.000000, 590.000000)">
                <g id="download" transform="translate(3.866667, 4.666667)">
                    <path d="M6.8694389,0.407900434 C7.13980187,0.137537462 7.57814685,0.137537462 7.84850982,0.407900434 C8.10197511,0.661365719 8.11781669,1.06247145 7.89603456,1.33439179 L7.84850982,1.38697136 L4.61774059,4.61774059 C4.36427531,4.87120588 3.96316958,4.88704746 3.69124924,4.66526533 L3.63866966,4.61774059 L0.407900434,1.38697136 C0.137537462,1.11660839 0.137537462,0.678263405 0.407900434,0.407900434 C0.661365719,0.154435148 1.06247145,0.138593568 1.33439179,0.360375693 L1.38697136,0.407900434 L4.12820513,3.14928205 L6.8694389,0.407900434 Z" id="Shape" transform="translate(4.128205, 2.512821) rotate(-180.000000) translate(-4.128205, -2.512821) "></path>
                    <path d="M4.12820513,0.205128205 C4.48806487,0.205128205 4.78379683,0.479691936 4.81734363,0.830762046 L4.82051282,0.897435897 L4.82051282,10.4358974 C4.82051282,10.8182484 4.51055611,11.1282051 4.12820513,11.1282051 C3.76834538,11.1282051 3.47261343,10.8536414 3.43906663,10.5025713 L3.43589744,10.4358974 L3.43589744,0.897435897 C3.43589744,0.515084917 3.74585415,0.205128205 4.12820513,0.205128205 Z" id="Shape" transform="translate(4.128205, 5.666667) rotate(-180.000000) translate(-4.128205, -5.666667) "></path>
                </g>
                <g id="home">
                    <path d="M15.7817812,6.84003125 L8.51784375,0.23646875 L8.4484375,0.173375 C8.40075,0.13003125 8.348375,0.0948125 8.29303125,0.06771875 C8.2905625,0.06653125 8.288,0.06565625 8.28553125,0.06446875 C8.10515625,-0.02109375 7.8948125,-0.02109375 7.71440625,0.06446875 C7.7119375,0.065625 7.709375,0.0665 7.70690625,0.06771875 C7.6515625,0.0948125 7.5991875,0.13003125 7.5515,0.173375 L7.48309375,0.2355625 L0.21821875,6.84003125 C-0.05421875,7.0876875 -0.0743125,7.50934375 0.173375,7.78178125 C0.42103125,8.05421875 0.8426875,8.0743125 1.115125,7.826625 L1.33334375,7.62825 L1.33334375,15.3333437 C1.33334375,15.7015313 1.6318125,16 1.9999904,16 L5.33334375,16 L10.6666875,16 L13.9999904,16 C14.3681875,16 14.6666562,15.7015313 14.6666562,15.3333438 L14.6666562,7.62825 L14.884875,7.826625 C15.1573125,8.0743125 15.5789375,8.05421875 15.826625,7.78178125 C16.0743125,7.50934375 16.0542187,7.08771875 15.7817812,6.84003125 Z M13.3333437,14.6666875 L2.66665625,14.6666875 L2.66665625,6.41625 L8,1.56765625 L13.3333437,6.41625 L13.3333437,14.6666875 Z" id="Shape"></path>
                </g>
            </g>
        </g>
    </g>
</svg>