<?xml version="1.0" encoding="UTF-8"?>
<svg width="26px" height="26px" viewBox="0 0 26 26" version="1.1" xmlns="http://www.w3.org/2000/svg" xmlns:xlink="http://www.w3.org/1999/xlink">
    <title>Suche</title>
    <g id="Symbols" stroke="none" stroke-width="1" fill="none" fill-rule="evenodd">
        <g id="Tab-bar" transform="translate(-317.000000, -13.000000)" fill="#FFFFFF" fill-rule="nonzero">
            <g id="Suche" transform="translate(317.000000, 13.000000)">
                <path d="M11,0 C4.92486775,0 0,4.92486775 0,11 C0,17.0751322 4.92486775,22 11,22 C17.0751322,22 22,17.0751322 22,11 C22,4.92486775 17.0751322,0 11,0 Z M11,2 C15.9705627,2 20,6.02943725 20,11 C20,15.9705627 15.9705627,20 11,20 C6.02943725,20 2,15.9705627 2,11 C2,6.02943725 6.02943725,2 11,2 Z" id="Oval"></path>
                <path d="M17.3595599,17.3595599 C17.7200438,16.9990759 18.2872749,16.9713464 18.6795661,17.2763713 L18.7737734,17.3595599 L25.7071068,24.2928932 C26.0976311,24.6834175 26.0976311,25.3165825 25.7071068,25.7071068 C25.3466228,26.0675907 24.7793918,26.0953203 24.3871006,25.7902954 L24.2928932,25.7071068 L17.3595599,18.7737734 C16.9690356,18.3832492 16.9690356,17.7500842 17.3595599,17.3595599 Z" id="Shape"></path>
            </g>
        </g>
    </g>
</svg>