<?xml version="1.0" encoding="UTF-8"?>
<svg width="26px" height="26px" viewBox="0 0 26 26" version="1.1" xmlns="http://www.w3.org/2000/svg" xmlns:xlink="http://www.w3.org/1999/xlink">
    <title>Auf Lager</title>
    <g id="Symbols" stroke="none" stroke-width="1" fill="none" fill-rule="evenodd">
        <g id="Tab-bar" transform="translate(-94.000000, -13.000000)" fill="#FFFFFF" fill-rule="nonzero">
            <g id="Auf-Lager" transform="translate(94.000000, 13.000000)">
                <g id="download" transform="translate(6.283333, 7.583333)">
                    <path d="M11.1628382,0.662838204 C11.602178,0.223498376 12.3144886,0.223498376 12.7538285,0.662838204 C13.1657096,1.07471929 13.1914521,1.7265161 12.8310562,2.16838665 L12.7538285,2.25382846 L7.50382846,7.50382846 C7.09194737,7.91570955 6.44015057,7.94145212 5.99828001,7.58105617 L5.9128382,7.50382846 L0.662838204,2.25382846 C0.223498376,1.81448863 0.223498376,1.10217803 0.662838204,0.662838204 C1.07471929,0.250957116 1.7265161,0.225214547 2.16838665,0.5856105 L2.25382846,0.662838204 L6.70833333,5.11758333 L11.1628382,0.662838204 Z" id="Shape" transform="translate(6.708333, 4.083333) rotate(-180.000000) translate(-6.708333, -4.083333) "></path>
                    <path d="M6.70833333,0.333333333 C7.29310542,0.333333333 7.77366984,0.779499396 7.8281834,1.34998833 L7.83333333,1.45833333 L7.83333333,16.9583333 C7.83333333,17.5796537 7.32965368,18.0833333 6.70833333,18.0833333 C6.12356125,18.0833333 5.64299682,17.6371673 5.58848327,17.0666783 L5.58333333,16.9583333 L5.58333333,1.45833333 C5.58333333,0.83701299 6.08701299,0.333333333 6.70833333,0.333333333 Z" id="Shape" transform="translate(6.708333, 9.208333) rotate(-180.000000) translate(-6.708333, -9.208333) "></path>
                </g>
                <g id="home">
                    <path d="M25.6453945,11.1150508 L13.8414961,0.384261719 L13.7287109,0.281734375 C13.6512187,0.211300781 13.5661094,0.154070313 13.4761758,0.110042969 C13.4721641,0.108113281 13.468,0.106691406 13.4639883,0.104761719 C13.1708789,-0.0342773437 12.8290703,-0.0342773437 12.5359102,0.104761719 C12.5318984,0.106640625 12.5277344,0.1080625 12.5237227,0.110042969 C12.4337891,0.154070313 12.3486797,0.211300781 12.2711875,0.281734375 L12.1600273,0.382789063 L0.354605469,11.1150508 C-0.0881054687,11.5174922 -0.120757812,12.2026836 0.281734375,12.6453945 C0.684175781,13.0881055 1.36936719,13.1207578 1.81207813,12.7182656 L2.16668359,12.3959063 L2.16668359,24.9166836 C2.16668359,25.5149883 2.65169531,26 3.25,26 L8.66668359,26 L17.3333672,26 L22.75,26 C23.3483047,26 23.8333164,25.5149883 23.8333164,24.9166836 L23.8333164,12.3959063 L24.1879219,12.7182656 C24.6306328,13.1207578 25.3157734,13.0881055 25.7182656,12.6453945 C26.1207578,12.2026836 26.0881055,11.517543 25.6453945,11.1150508 Z M21.6666836,23.8333672 L4.33331641,23.8333672 L4.33331641,10.4264063 L13,2.54744141 L21.6666836,10.4264063 L21.6666836,23.8333672 Z" id="Shape"></path>
                </g>
            </g>
        </g>
    </g>
</svg>