<?xml version="1.0" encoding="UTF-8"?>
<svg width="26px" height="26px" viewBox="0 0 26 26" version="1.1" xmlns="http://www.w3.org/2000/svg" xmlns:xlink="http://www.w3.org/1999/xlink">
    <title>Auf Lager</title>
    <g id="Symbols" stroke="none" stroke-width="1" fill="none" fill-rule="evenodd">
        <g id="Tab-bar" transform="translate(-257.000000, -13.000000)" fill="#FFFFFF" fill-rule="nonzero">
            <g id="Auf-Lager" transform="translate(257.000000, 13.000000)">
                <g id="home">
                    <path d="M25.6453945,11.1150508 L13.8414961,0.384261719 L13.7287109,0.281734375 C13.6512187,0.211300781 13.5661094,0.154070313 13.4761758,0.110042969 C13.4721641,0.108113281 13.468,0.106691406 13.4639883,0.104761719 C13.1708789,-0.0342773437 12.8290703,-0.0342773437 12.5359102,0.104761719 C12.5318984,0.106640625 12.5277344,0.1080625 12.5237227,0.110042969 C12.4337891,0.154070313 12.3486797,0.211300781 12.2711875,0.281734375 L12.1600273,0.382789063 L0.354605469,11.1150508 C-0.0881054687,11.5174922 -0.120757812,12.2026836 0.281734375,12.6453945 C0.684175781,13.0881055 1.36936719,13.1207578 1.81207813,12.7182656 L2.16668359,12.3959063 L2.16668359,24.9166836 C2.16668359,25.5149883 2.65169531,26 3.25,26 L8.66668359,26 L17.3333672,26 L22.75,26 C23.3483047,26 23.8333164,25.5149883 23.8333164,24.9166836 L23.8333164,12.3959063 L24.1879219,12.7182656 C24.6306328,13.1207578 25.3157734,13.0881055 25.7182656,12.6453945 C26.1207578,12.2026836 26.0881055,11.517543 25.6453945,11.1150508 Z M21.6666836,23.8333672 L4.33331641,23.8333672 L4.33331641,10.4264063 L13,2.54744141 L21.6666836,10.4264063 L21.6666836,23.8333672 Z" id="Shape"></path>
                </g>
                <g id="Group" transform="translate(7.258333, 10.833333)">
                    <g id="x-circle" transform="translate(0.866667, 0.000000)">
                        <path d="M8.49646765,-0.278532346 C8.91953564,-0.701600329 9.60546436,-0.701600329 10.0285323,-0.278532346 C10.4190566,0.111991945 10.449097,0.726492256 10.1186533,1.1514744 L10.0285323,1.25353235 L1.25353235,10.0285323 C0.830464364,10.4516003 0.144535636,10.4516003 -0.278532346,10.0285323 C-0.669056638,9.63800805 -0.699096968,9.02350774 -0.368653337,8.5985256 L-0.278532346,8.49646765 L8.49646765,-0.278532346 Z" id="Shape"></path>
                        <path d="M-0.278532346,-0.278532346 C0.111991945,-0.669056638 0.726492256,-0.699096968 1.1514744,-0.368653337 L1.25353235,-0.278532346 L10.0285323,8.49646765 C10.4516003,8.91953564 10.4516003,9.60546436 10.0285323,10.0285323 C9.63800805,10.4190566 9.02350774,10.449097 8.5985256,10.1186533 L8.49646765,10.0285323 L-0.278532346,1.25353235 C-0.701600329,0.830464364 -0.701600329,0.144535636 -0.278532346,-0.278532346 Z" id="Shape"></path>
                    </g>
                </g>
            </g>
        </g>
    </g>
</svg>