<?xml version="1.0" encoding="UTF-8"?>
<svg width="26px" height="26px" viewBox="0 0 26 26" version="1.1" xmlns="http://www.w3.org/2000/svg" xmlns:xlink="http://www.w3.org/1999/xlink">
    <title>Auf Lager</title>
    <g id="Symbols" stroke="none" stroke-width="1" fill="none" fill-rule="evenodd">
        <g id="Tab-bar" transform="translate(-33.000000, -13.000000)" fill="#FFFFFF" fill-rule="nonzero">
            <g id="Auf-Lager" transform="translate(33.000000, 13.000000)">
                <g id="download" transform="translate(6.283333, 1.083333)">
                    <path d="M11.1628382,11.9961715 C11.602178,11.5568317 12.3144886,11.5568317 12.7538285,11.9961715 C13.1657096,12.4080526 13.1914521,13.0598494 12.8310562,13.50172 L12.7538285,13.5871618 L7.50382846,18.8371618 C7.09194737,19.2490429 6.44015057,19.2747855 5.99828001,18.9143895 L5.9128382,18.8371618 L0.662838204,13.5871618 C0.223498376,13.147822 0.223498376,12.4355114 0.662838204,11.9961715 C1.07471929,11.5842904 1.7265161,11.5585479 2.16838665,11.9189438 L2.25382846,11.9961715 L6.70833333,16.4509167 L11.1628382,11.9961715 Z" id="Shape"></path>
                    <path d="M6.70833333,0.333333333 C7.29310542,0.333333333 7.77366984,0.779499396 7.8281834,1.34998833 L7.83333333,1.45833333 L7.83333333,18.0416667 C7.83333333,18.662987 7.32965368,19.1666667 6.70833333,19.1666667 C6.12356125,19.1666667 5.64299682,18.7205006 5.58848327,18.1500117 L5.58333333,18.0416667 L5.58333333,1.45833333 C5.58333333,0.83701299 6.08701299,0.333333333 6.70833333,0.333333333 Z" id="Shape"></path>
                </g>
                <g id="home">
                    <path d="M25.6453945,11.1150508 L13.8414961,0.384261719 L13.7287109,0.281734375 C13.6512187,0.211300781 13.5661094,0.154070313 13.4761758,0.110042969 C13.4721641,0.108113281 13.468,0.106691406 13.4639883,0.104761719 C13.1708789,-0.0342773437 12.8290703,-0.0342773437 12.5359102,0.104761719 C12.5318984,0.106640625 12.5277344,0.1080625 12.5237227,0.110042969 C12.4337891,0.154070313 12.3486797,0.211300781 12.2711875,0.281734375 L12.1600273,0.382789063 L0.354605469,11.1150508 C-0.0881054687,11.5174922 -0.120757812,12.2026836 0.281734375,12.6453945 C0.684175781,13.0881055 1.36936719,13.1207578 1.81207813,12.7182656 L2.16668359,12.3959063 L2.16668359,24.9166836 C2.16668359,25.5149883 2.65169531,26 3.25,26 L8.66668359,26 L17.3333672,26 L22.75,26 C23.3483047,26 23.8333164,25.5149883 23.8333164,24.9166836 L23.8333164,12.3959063 L24.1879219,12.7182656 C24.6306328,13.1207578 25.3157734,13.0881055 25.7182656,12.6453945 C26.1207578,12.2026836 26.0881055,11.517543 25.6453945,11.1150508 Z M21.6666836,23.8333672 L4.33331641,23.8333672 L4.33331641,10.4264063 L13,2.54744141 L21.6666836,10.4264063 L21.6666836,23.8333672 Z" id="Shape"></path>
                </g>
            </g>
        </g>
    </g>
</svg>