<?xml version="1.0" encoding="UTF-8"?>
<svg width="16px" height="17px" viewBox="0 0 16 17" version="1.1" xmlns="http://www.w3.org/2000/svg" xmlns:xlink="http://www.w3.org/1999/xlink">
    <title>Papierkorb</title>
    <defs>
        <filter id="filter-1">
            <feColorMatrix in="SourceGraphic" type="matrix" values="0 0 0 0 0.156863 0 0 0 0 0.745098 0 0 0 0 0.705882 0 0 0 1.000000 0"></feColorMatrix>
        </filter>
    </defs>
    <g id="Page-1" stroke="none" stroke-width="1" fill="none" fill-rule="evenodd">
        <g id="Papierkorb" transform="translate(-77.000000, -51.000000)" filter="url(#filter-1)">
            <g transform="translate(77.000000, 51.000000)">
                <path d="M14.5,3 C15.0522847,3 15.5,3.44771525 15.5,4 C15.5,4.51283584 15.1139598,4.93550716 14.6166211,4.99327227 L14.5,5 L1,5 C0.44771525,5 0,4.55228475 0,4 C0,3.48716416 0.38604019,3.06449284 0.883378875,3.00672773 L1,3 L14.5,3 Z" id="Shape" fill="#000000" fill-rule="nonzero"></path>
                <path d="M13,3 C13.5128358,3 13.9355072,3.38604019 13.9932723,3.88337887 L14,4 L14,14.5 C14,15.8254834 12.9684641,16.9100387 11.6643757,16.9946823 L11.5,17 L4,17 C2.6745166,17 1.58996133,15.9684641 1.50531768,14.6643757 L1.5,14.5 L1.5,4 C1.5,3.44771525 1.94771525,3 2.5,3 C3.01283584,3 3.43550716,3.38604019 3.49327227,3.88337887 L3.5,4 L3.5,14.5 C3.5,14.7454599 3.67687516,14.9496084 3.91012437,14.9919443 L4,15 L11.5,15 C11.7454599,15 11.9496084,14.8231248 11.9919443,14.5898756 L12,14.5 L12,4 C12,3.44771525 12.4477153,3 13,3 Z M9.25,0 C10.5754834,0 11.6600387,1.03153594 11.7446823,2.33562431 L11.75,2.5 L11.75,4 C11.75,4.55228475 11.3022847,5 10.75,5 C10.2371642,5 9.81449284,4.61395981 9.75672773,4.11662113 L9.75,4 L9.75,2.5 C9.75,2.25454011 9.57312484,2.05039163 9.33987563,2.00805567 L9.25,2 L6.25,2 C6.00454011,2 5.80039163,2.17687516 5.75805567,2.41012437 L5.75,2.5 L5.75,4 C5.75,4.55228475 5.30228475,5 4.75,5 C4.23716416,5 3.81449284,4.61395981 3.75672773,4.11662113 L3.75,4 L3.75,2.5 C3.75,1.1745166 4.78153594,0.089961328 6.08562431,0.00531767968 L6.25,0 L9.25,0 Z" id="Shape" fill="#000000" fill-rule="nonzero"></path>
                <path d="M6.25,6.75 C6.76283584,6.75 7.18550716,7.13604019 7.24327227,7.63337887 L7.25,7.75 L7.25,12.25 C7.25,12.8022847 6.80228475,13.25 6.25,13.25 C5.73716416,13.25 5.31449284,12.8639598 5.25672773,12.3666211 L5.25,12.25 L5.25,7.75 C5.25,7.19771525 5.69771525,6.75 6.25,6.75 Z" id="Shape" fill="#000000" fill-rule="nonzero"></path>
                <path d="M9.25,6.75 C9.76283584,6.75 10.1855072,7.13604019 10.2432723,7.63337887 L10.25,7.75 L10.25,12.25 C10.25,12.8022847 9.80228475,13.25 9.25,13.25 C8.73716416,13.25 8.31449284,12.8639598 8.25672773,12.3666211 L8.25,12.25 L8.25,7.75 C8.25,7.19771525 8.69771525,6.75 9.25,6.75 Z" id="Shape" fill="#000000" fill-rule="nonzero"></path>
            </g>
        </g>
    </g>
</svg>