<?xml version="1.0" encoding="UTF-8"?>
<svg width="18px" height="17px" viewBox="0 0 18 17" version="1.1" xmlns="http://www.w3.org/2000/svg" xmlns:xlink="http://www.w3.org/1999/xlink">
    <title>Group</title>
    <defs>
        <filter id="filter-1">
            <feColorMatrix in="SourceGraphic" type="matrix" values="0 0 0 0 0.156863 0 0 0 0 0.745098 0 0 0 0 0.705882 0 0 0 1.000000 0"></feColorMatrix>
        </filter>
    </defs>
    <g id="Page-1" stroke="none" stroke-width="1" fill="none" fill-rule="evenodd">
        <g id="Group" transform="translate(-77.000000, -51.000000)" filter="url(#filter-1)">
            <g transform="translate(77.000000, 51.000000)">
                <path d="M10.4326667,2.525 L14.6156667,6.708 L6.09669472,15.2281595 C6.04015885,15.2847859 5.97533225,15.3321155 5.90465654,15.3686456 L5.79456134,15.4151535 L1.15819714,16.9605931 C1.07941517,16.9865368 0.996965761,16.9999841 0.914018308,16.9999841 C0.831251962,16.9999841 0.748983664,16.9865368 0.670428079,16.9603667 C0.265515921,16.8255319 0.0466016538,16.387975 0.181481819,15.9830628 L0.181481819,15.9830628 L1.72692146,11.3466986 C1.76499941,11.2330534 1.82870414,11.1296407 1.91314574,11.0445652 L1.91314574,11.0445652 L10.4326667,2.525 Z M14.1833017,0 C14.9679973,0 15.7205462,0.311608499 16.2753705,0.866523339 C17.4304319,2.02176585 17.4302961,3.89469398 16.2750536,5.04980066 L16.2750536,5.04980066 L15.8176667,5.506 L11.6346667,1.323 L12.0915499,0.867021386 C12.5987276,0.356398765 13.2739894,0.0514868224 13.9877751,0.00594847982 Z" id="Combined-Shape" fill="#000000" fill-rule="nonzero"></path>
            </g>
        </g>
    </g>
</svg>