<svg width="18" height="17" xmlns="http://www.w3.org/2000/svg" fill="#28beb4">
  <defs>
    <filter id="a">
      <feColorMatrix in="SourceGraphic" values="0 0 0 0 0.156863 0 0 0 0 0.745098 0 0 0 0 0.705882 0 0 0 1.000000 0"/>
    </filter>
  </defs>
  <g transform="translate(-77 -51)" filter="url(#a)" fill="none" fill-rule="evenodd">
    <path d="M87.4327 53.525l4.183 4.183-8.519 8.5202a.7727.7727 0 01-.192.1404l-.1101.0466-4.6364 1.5454a.7709.7709 0 01-.4878-.0002.7727.7727 0 01-.489-.9773l1.5455-4.6364a.7812.7812 0 01.1862-.3021l8.5196-8.5196zM91.1833 51c.7847 0 1.5372.3116 2.092.8665 1.1551 1.1553 1.155 3.0282-.0002 4.1833l-.4574.4562-4.183-4.183.4568-.456a2.9363 2.9363 0 011.8963-.861z" fill="#000" fill-rule="nonzero"/>
  </g>
</svg>
