<?xml version="1.0" encoding="UTF-8"?>
<svg width="27px" height="22px" viewBox="0 0 27 22" version="1.1" xmlns="http://www.w3.org/2000/svg" xmlns:xlink="http://www.w3.org/1999/xlink">
    <title>Group 2</title>
    <g id="Page-1" stroke="none" stroke-width="1" fill="none" fill-rule="evenodd" stroke-linecap="round" stroke-linejoin="round">
        <g id="Artikel---Verleihen2" transform="translate(-30.000000, -179.000000)" stroke-width="2">
            <g id="Group-2" transform="translate(31.000000, 180.000000)">
                <g id="camera">
                    <path d="M24.7619048,17.7777778 C24.7619048,19.0050772 23.7540609,20 22.5108225,20 L2.25108225,20 C1.00784385,20 0,19.0050772 0,17.7777778 L0,5.55555556 C0,4.32825611 1.00784385,3.33333333 2.25108225,3.33333333 L6.75324675,3.33333333 L9.004329,0 L15.7575758,0 L18.008658,3.33333333 L22.5108225,3.33333333 C23.7540609,3.33333333 24.7619048,4.32825611 24.7619048,5.55555556 L24.7619048,17.7777778 Z" id="Shape" stroke="#DADADA"></path>
                    <circle id="Oval" stroke="#28BEB4" fill="#28BEB4" cx="12.3809524" cy="11.4285714" r="4.28571429"></circle>
                </g>
                <g id="x-circle" transform="translate(12.503264, 11.360407) rotate(-315.000000) translate(-12.503264, -11.360407) translate(10.598502, 9.455645)" stroke="#FFFFFF">
                    <line x1="3.58117055" y1="0.411239951" x2="0.247837213" y2="3.74457328" id="Shape"></line>
                    <line x1="0.247837213" y1="0.411239951" x2="3.58117055" y2="3.74457328" id="Shape"></line>
                </g>
            </g>
        </g>
    </g>
</svg>