<?xml version="1.0" encoding="UTF-8"?>
<svg width="20px" height="20px" viewBox="0 0 20 20" version="1.1" xmlns="http://www.w3.org/2000/svg" xmlns:xlink="http://www.w3.org/1999/xlink">
    <title>Auf Lager</title>
    <g id="Page-1" stroke="none" stroke-width="1" fill="none" fill-rule="evenodd">
        <g id="Menü" transform="translate(-17.000000, -166.000000)" fill="#9D9D9C" fill-rule="nonzero">
            <g id="Auf-Lager" transform="translate(17.000000, 166.000000)">
                <g id="download" transform="translate(4.833333, 5.833333)">
                    <path d="M8.58679862,0.509875542 C8.92475233,0.171921828 9.47268356,0.171921828 9.81063728,0.509875542 C10.1274689,0.826707149 10.1472709,1.32808931 9.8700432,1.66798973 L9.81063728,1.7337142 L5.77217574,5.77217574 C5.45534413,6.08900735 4.95396197,6.10880932 4.61406155,5.83158167 L4.54833708,5.77217574 L0.509875542,1.7337142 C0.171921828,1.39576049 0.171921828,0.847829256 0.509875542,0.509875542 C0.826707149,0.193043935 1.32808931,0.17324196 1.66798973,0.450469616 L1.7337142,0.509875542 L5.16025641,3.93660256 L8.58679862,0.509875542 Z" id="Shape" transform="translate(5.160256, 3.141026) rotate(-180.000000) translate(-5.160256, -3.141026) "></path>
                    <path d="M5.16025641,0.256410256 C5.61008109,0.256410256 5.97974603,0.59961492 6.02167954,1.03845256 L6.02564103,1.12179487 L6.02564103,13.0448718 C6.02564103,13.5228105 5.63819514,13.9102564 5.16025641,13.9102564 C4.71043173,13.9102564 4.34076679,13.5670517 4.29883328,13.1282141 L4.29487179,13.0448718 L4.29487179,1.12179487 C4.29487179,0.643856146 4.68231768,0.256410256 5.16025641,0.256410256 Z" id="Shape" transform="translate(5.160256, 7.083333) rotate(-180.000000) translate(-5.160256, -7.083333) "></path>
                </g>
                <g id="home">
                    <path d="M19.7272266,8.55003906 L10.6473047,0.295585938 L10.5605469,0.21671875 C10.5009375,0.162539063 10.4354687,0.118515625 10.3662891,0.0846484375 C10.3632031,0.0831640625 10.36,0.0820703125 10.3569141,0.0805859375 C10.1314453,-0.0263671875 9.86851562,-0.0263671875 9.64300781,0.0805859375 C9.63992187,0.08203125 9.63671875,0.083125 9.63363281,0.0846484375 C9.56445312,0.118515625 9.49898437,0.162539063 9.439375,0.21671875 L9.35386719,0.294453125 L0.272773438,8.55003906 C-0.0677734375,8.85960937 -0.092890625,9.38667969 0.21671875,9.72722656 C0.526289063,10.0677734 1.05335938,10.0928906 1.39390625,9.78328125 L1.66667969,9.5353125 L1.66667969,19.1666797 C1.66667969,19.6269141 2.03976563,20 2.5,20 L6.66667969,20 L13.3333594,20 L17.5,20 C17.9602344,20 18.3333203,19.6269141 18.3333203,19.1666797 L18.3333203,9.5353125 L18.6060937,9.78328125 C18.9466406,10.0928906 19.4736719,10.0677734 19.7832812,9.72722656 C20.0928906,9.38667969 20.0677734,8.85964844 19.7272266,8.55003906 Z M16.6666797,18.3333594 L3.33332031,18.3333594 L3.33332031,8.0203125 L10,1.95957031 L16.6666797,8.0203125 L16.6666797,18.3333594 Z" id="Shape"></path>
                </g>
            </g>
        </g>
    </g>
</svg>