<?xml version="1.0" encoding="UTF-8"?>
<svg width="20px" height="20px" viewBox="0 0 20 20" version="1.1" xmlns="http://www.w3.org/2000/svg" xmlns:xlink="http://www.w3.org/1999/xlink">
    <title>Auf Lager</title>
    <g id="Page-1" stroke="none" stroke-width="1" fill="none" fill-rule="evenodd">
        <g id="Menü" transform="translate(-17.000000, -224.000000)" fill="#9D9D9C" fill-rule="nonzero">
            <g id="Auf-Lager" transform="translate(17.000000, 224.000000)">
                <g id="home">
                    <path d="M19.7272266,8.55003906 L10.6473047,0.295585938 L10.5605469,0.21671875 C10.5009375,0.162539063 10.4354687,0.118515625 10.3662891,0.0846484375 C10.3632031,0.0831640625 10.36,0.0820703125 10.3569141,0.0805859375 C10.1314453,-0.0263671875 9.86851562,-0.0263671875 9.64300781,0.0805859375 C9.63992187,0.08203125 9.63671875,0.083125 9.63363281,0.0846484375 C9.56445312,0.118515625 9.49898437,0.162539063 9.439375,0.21671875 L9.35386719,0.294453125 L0.272773438,8.55003906 C-0.0677734375,8.85960937 -0.092890625,9.38667969 0.21671875,9.72722656 C0.526289063,10.0677734 1.05335938,10.0928906 1.39390625,9.78328125 L1.66667969,9.5353125 L1.66667969,19.1666797 C1.66667969,19.6269141 2.03976563,20 2.5,20 L6.66667969,20 L13.3333594,20 L17.5,20 C17.9602344,20 18.3333203,19.6269141 18.3333203,19.1666797 L18.3333203,9.5353125 L18.6060937,9.78328125 C18.9466406,10.0928906 19.4736719,10.0677734 19.7832812,9.72722656 C20.0928906,9.38667969 20.0677734,8.85964844 19.7272266,8.55003906 Z M16.6666797,18.3333594 L3.33332031,18.3333594 L3.33332031,8.0203125 L10,1.95957031 L16.6666797,8.0203125 L16.6666797,18.3333594 Z" id="Shape"></path>
                </g>
                <g id="Group" transform="translate(4.750000, 7.500000)">
                    <g id="x-circle" transform="translate(0.666667, 0.000000)">
                        <path d="M7.36907768,0.619077682 C7.69451459,0.293640773 8.22215207,0.293640773 8.54758898,0.619077682 C8.84799229,0.919480984 8.87110023,1.39217353 8.61691282,1.71908287 L8.54758898,1.79758898 L1.79758898,8.54758898 C1.47215207,8.87302589 0.944514592,8.87302589 0.619077682,8.54758898 C0.318674381,8.24718568 0.295566435,7.77449314 0.549753844,7.4475838 L0.619077682,7.36907768 L7.36907768,0.619077682 Z" id="Shape"></path>
                        <path d="M0.619077682,0.619077682 C0.919480984,0.318674381 1.39217353,0.295566435 1.71908287,0.549753844 L1.79758898,0.619077682 L8.54758898,7.36907768 C8.87302589,7.69451459 8.87302589,8.22215207 8.54758898,8.54758898 C8.24718568,8.84799229 7.77449314,8.87110023 7.4475838,8.61691282 L7.36907768,8.54758898 L0.619077682,1.79758898 C0.293640773,1.47215207 0.293640773,0.944514592 0.619077682,0.619077682 Z" id="Shape"></path>
                    </g>
                </g>
            </g>
        </g>
    </g>
</svg>