<?xml version="1.0" encoding="UTF-8"?>
<svg width="20px" height="22px" viewBox="0 0 20 22" version="1.1" xmlns="http://www.w3.org/2000/svg" xmlns:xlink="http://www.w3.org/1999/xlink">
    <title>Group 3</title>
    <g id="Page-1" stroke="none" stroke-width="1" fill="none" fill-rule="evenodd">
        <g id="Menü" transform="translate(-17.000000, -339.000000)">
            <g id="Group-3" transform="translate(18.000000, 340.000000)">
                <g id="Neuer-Artikel" stroke="#9D9D9C" stroke-width="2">
                    <g id="Group">
                        <g id="trash" transform="translate(1.000000, 5.000000)" stroke-linecap="round" stroke-linejoin="round">
                            <path d="M16,0 L16,13 C16,14.1045695 14.9766509,15 13.7142857,15 L2.28571429,15 C1.02334914,15 0,14.1045695 0,13 L0,0 L16,0 Z" id="Shape"></path>
                        </g>
                        <rect id="Rectangle" x="0" y="0" width="18" height="5" rx="2"></rect>
                    </g>
                </g>
                <g id="Group-2" transform="translate(4.700000, 8.000000)" fill-rule="nonzero">
                    <g id="clock-circular-outline" stroke="#9D9D9C">
                        <path d="M4.46326531,0 C2.00204082,0 0,2.00204082 0,4.46326531 C0,6.9244898 2.00204082,8.92653061 4.46326531,8.92653061 C6.9244898,8.92653061 8.92653061,6.9244898 8.92653061,4.46326531 C8.92653061,2.00204082 6.9244898,0 4.46326531,0 Z" id="Combined-Shape"></path>
                    </g>
                    <path d="M4.5,1.35 C4.73077613,1.35 4.92097822,1.52371809 4.94697252,1.74752049 L4.95,1.8 L4.95,4.53825 L6.16819805,5.75680195 C6.33041583,5.91901973 6.34289413,6.17427371 6.20563292,6.35080475 L6.16819805,6.39319805 C6.00598027,6.55541583 5.75072629,6.56789413 5.57419525,6.43063292 L5.53180195,6.39319805 L4.18180195,5.04319805 C4.11147581,4.97287191 4.06683077,4.88166529 4.0539026,4.78414979 L4.05,4.725 L4.05,1.8 C4.05,1.55147186 4.25147186,1.35 4.5,1.35 Z" id="Path-2" fill="#979797"></path>
                </g>
            </g>
        </g>
    </g>
</svg>