<?xml version="1.0" encoding="UTF-8"?>
<svg width="20px" height="22px" viewBox="0 0 20 22" version="1.1" xmlns="http://www.w3.org/2000/svg" xmlns:xlink="http://www.w3.org/1999/xlink">
    <title>Neuer Artikel</title>
    <g id="Page-1" stroke="none" stroke-width="1" fill="none" fill-rule="evenodd">
        <g id="Menü" transform="translate(-17.000000, -283.000000)">
            <g id="Neuer-Artikel" transform="translate(18.000000, 284.000000)">
                <g id="Group" stroke="#9D9D9C" stroke-width="2">
                    <g id="trash" transform="translate(1.000000, 5.000000)" stroke-linecap="round" stroke-linejoin="round">
                        <path d="M16,0 L16,13 C16,14.1045695 14.9766509,15 13.7142857,15 L2.28571429,15 C1.02334914,15 0,14.1045695 0,13 L0,0 L16,0 Z" id="Shape"></path>
                    </g>
                    <rect id="Rectangle" x="0" y="0" width="18" height="5" rx="2"></rect>
                </g>
                <g id="Group" transform="translate(8.913984, 12.713984) rotate(-45.000000) translate(-8.913984, -12.713984) translate(4.550348, 8.713984)" fill="#9D9D9C" fill-rule="nonzero">
                    <g id="x-circle" transform="translate(0.581818, 0.000000)">
                        <path d="M6.43119507,0.540285977 C6.71521273,0.256268311 7.17569636,0.256268311 7.45971402,0.540285977 C7.72188418,0.802456131 7.74205111,1.21498781 7.52021483,1.5002905 L7.45971402,1.56880493 L1.56880493,7.45971402 C1.28478727,7.74373169 0.824303644,7.74373169 0.540285977,7.45971402 C0.278115823,7.19754387 0.257948889,6.78501219 0.479785173,6.4997095 L0.540285977,6.43119507 L6.43119507,0.540285977 Z" id="Shape"></path>
                        <path d="M0.540285977,0.540285977 C0.802456131,0.278115823 1.21498781,0.257948889 1.5002905,0.479785173 L1.56880493,0.540285977 L7.45971402,6.43119507 C7.74373169,6.71521273 7.74373169,7.17569636 7.45971402,7.45971402 C7.19754387,7.72188418 6.78501219,7.74205111 6.4997095,7.52021483 L6.43119507,7.45971402 L0.540285977,1.56880493 C0.256268311,1.28478727 0.256268311,0.824303644 0.540285977,0.540285977 Z" id="Shape"></path>
                    </g>
                </g>
            </g>
        </g>
    </g>
</svg>