<?xml version="1.0" encoding="UTF-8"?>
<svg width="30px" height="29px" viewBox="0 0 30 29" version="1.1" xmlns="http://www.w3.org/2000/svg" xmlns:xlink="http://www.w3.org/1999/xlink">
    <title>Combined Shape</title>
    <g id="Page-1" stroke="none" stroke-width="1" fill="none" fill-rule="evenodd">
        <g id="Artikelliste" transform="translate(-172.000000, -722.000000)" fill="#FFFFFF" fill-rule="nonzero">
            <g id="new-post" transform="translate(162.800000, 712.000000)">
                <path d="M24.5,10 C25.9560234,10 27.1363636,11.1803402 27.1363636,12.6363636 L27.136,21.863 L36.3636364,21.8636364 C37.8196598,21.8636364 39,23.0439766 39,24.5 C39,25.9560234 37.8196598,27.1363636 36.3636364,27.1363636 L27.136,27.136 L27.1363636,36.3636364 C27.1363636,37.8196598 25.9560234,39 24.5,39 C23.0439766,39 21.8636364,37.8196598 21.8636364,36.3636364 L21.863,27.136 L12.6363636,27.1363636 C11.1803402,27.1363636 10,25.9560234 10,24.5 C10,23.0439766 11.1803402,21.8636364 12.6363636,21.8636364 L21.863,21.863 L21.8636364,12.6363636 C21.8636364,11.1803402 23.0439766,10 24.5,10 Z" id="Combined-Shape"></path>
            </g>
        </g>
    </g>
</svg>