<?xml version="1.0" encoding="UTF-8"?>
<svg width="31px" height="28px" viewBox="0 0 31 28" version="1.1" xmlns="http://www.w3.org/2000/svg" xmlns:xlink="http://www.w3.org/1999/xlink">
    <title>Verleihen</title>
    <g id="Page-1" stroke="none" stroke-width="1" fill="none" fill-rule="evenodd">
        <g id="Artikelliste" transform="translate(-172.000000, -722.000000)" fill="#FFFFFF" fill-rule="nonzero">
            <g id="Verleihen" transform="translate(172.000000, 722.000000)">
                <g id="Group" transform="translate(20.700000, 18.000000)">
                    <path d="M5.69934263,0.173411544 C5.93055802,-0.0578038479 6.30543224,-0.0578038479 6.53664763,0.173411544 C6.75341206,0.390175973 6.76695983,0.733203044 6.57729096,0.965750303 L6.53664763,1.01071655 L3.77368209,3.77368209 C3.55691766,3.99044652 3.21389059,4.00399429 2.98134333,3.81432542 L2.93637708,3.77368209 L0.173411544,1.01071655 C-0.0578038479,0.779501154 -0.0578038479,0.404626935 0.173411544,0.173411544 C0.390175973,-0.0433528859 0.733203044,-0.0569006628 0.965750303,0.132768213 L1.01071655,0.173411544 L3.35502959,2.51785103 L5.69934263,0.173411544 Z" id="Shape" transform="translate(3.355030, 1.973547) rotate(-180.000000) translate(-3.355030, -1.973547) "></path>
                    <path d="M3.35502959,-4.15233458e-14 C3.66278294,-4.15233458e-14 3.91569398,0.234807896 3.94438333,0.535044326 L3.94709363,0.592064045 L3.94709363,8.74939088 C3.94709363,9.07637882 3.68201753,9.34145493 3.35502959,9.34145493 C3.04727623,9.34145493 2.79436519,9.10664703 2.76567584,8.8064106 L2.76296554,8.74939088 L2.76296554,0.592064045 C2.76296554,0.265076102 3.02804164,-4.15233458e-14 3.35502959,-4.15233458e-14 Z" id="Shape" transform="translate(3.355030, 4.670727) rotate(-180.000000) translate(-3.355030, -4.670727) "></path>
                </g>
                <path d="M12.1212082,0 C8.25521499,0 5.12120824,3.13400675 5.12120824,7 C5.12120824,10.8659932 8.25521499,14 12.1212082,14 C15.9872015,14 19.1212082,10.8659932 19.1212082,7 C19.1212082,3.13400675 15.9872015,0 12.1212082,0 Z M12.1212082,2 C14.882632,2 17.1212082,4.23857625 17.1212082,7 C17.1212082,9.76142375 14.882632,12 12.1212082,12 C9.35978449,12 7.12120824,9.76142375 7.12120824,7 C7.12120824,4.23857625 9.35978449,2 12.1212082,2 Z" id="Oval"></path>
                <path d="M23.9962082,14 C20.130215,14 16.9962082,17.1340068 16.9962082,21 C16.9962082,24.8659932 20.130215,28 23.9962082,28 C27.8622015,28 30.9962082,24.8659932 30.9962082,21 C30.9962082,17.1340068 27.8622015,14 23.9962082,14 Z M23.9962082,16 C26.757632,16 28.9962082,18.2385763 28.9962082,21 C28.9962082,23.7614237 26.757632,26 23.9962082,26 C21.2347845,26 18.9962082,23.7614237 18.9962082,21 C18.9962082,18.2385763 21.2347845,16 23.9962082,16 Z" id="Oval"></path>
                <path d="M3.74981756,17.0715233 C8.98822859,14.9761589 15.2541879,14.9761589 20.4925989,17.0715233 C20.5847945,17.1084015 20.6753073,17.1462735 20.7641356,17.1851308 C20.2323765,17.6360265 19.7965667,18.1955474 19.4906118,18.8294953 L19.314321,18.7605749 C14.641604,17.0255901 9.10989731,17.0815573 4.49259891,18.9284767 C2.05880746,19.9019933 1.42468257,21.5571402 2.48573736,24.3546331 C2.63307754,24.7430986 3.00526977,25 3.42073495,25 L3.42073495,25 L20.8216745,25 C20.8753397,25 20.9282827,24.9957139 20.9801124,24.9874119 C21.5969368,25.4558067 22.3277443,25.7840116 23.1233983,25.9240818 C22.5642729,26.5931861 21.7272417,27 20.8216745,27 L20.8216745,27 L3.42072602,27 C2.17431766,27 1.0577489,26.2293011 0.615728293,25.0639046 C-0.817773102,21.2844485 0.261752287,18.4667494 3.74981756,17.0715233 Z" id="Combined-Shape"></path>
            </g>
        </g>
    </g>
</svg>