<?xml version="1.0" encoding="UTF-8"?>
<svg width="26px" height="24px" viewBox="0 0 26 24" version="1.1" xmlns="http://www.w3.org/2000/svg" xmlns:xlink="http://www.w3.org/1999/xlink">
    <title>symbol-silhouette-speichern</title>
    <defs>
        <filter id="filter-1">
            <feColorMatrix in="SourceGraphic" type="matrix" values="0 0 0 0 1.000000 0 0 0 0 1.000000 0 0 0 0 1.000000 0 0 0 1.000000 0"></feColorMatrix>
        </filter>
    </defs>
    <g id="Page-1" stroke="none" stroke-width="1" fill="none" fill-rule="evenodd">
        <g id="Artikel---Bearbeiten" transform="translate(-175.000000, -725.000000)">
            <g id="symbol-silhouette-speichern" transform="translate(162.800000, 712.000000)" filter="url(#filter-1)">
                <g transform="translate(13.200000, 13.000000)">
                    <path d="M7.57130645,4.36363636 L16.4296163,4.36363636 C16.6931743,4.36363636 16.9090909,4.14937937 16.9090909,3.88632207 L16.9090909,0 L7.09090909,0 L7.09090909,3.88632207 C7.09090909,4.14937937 7.30624289,4.36363636 7.57130645,4.36363636 Z" id="Path" fill="#FFFFFF" fill-rule="nonzero"></path>
                    <path d="M23.6252411,6.03696205 L18.5673468,0.957843942 L18.5673468,3.94817043 C18.5673468,5.09813347 17.6316533,6.03381738 16.4816785,6.03381738 L7.51910769,6.03381738 C6.3688872,6.03381738 5.43343938,5.09813347 5.43343938,3.94817043 L5.43343938,0 L2.20231675,0 C0.985959438,0 0,0.986145887 0,2.20165545 L0,21.7983445 C0,23.0137558 0.985959438,24 2.20231675,24 L21.798322,24 C23.0139423,24 24,23.0139524 24,21.7983445 L24,6.9440492 C24,6.60339402 23.865073,6.2774303 23.6252411,6.03696205 Z M20.2665127,18.9498226 C20.2665127,19.6590418 19.6914762,20.2349078 18.9807265,20.2349078 L5.01848735,20.2349078 C4.30842557,20.2349078 3.73343816,19.6589435 3.73343816,18.9498226 L3.73343816,12.2495829 C3.73343816,11.5405602 4.30842557,10.9647925 5.01848735,10.9647925 L18.9807265,10.9647925 C19.6914762,10.9647925 20.2665127,11.5406585 20.2665127,12.2495829 L20.2665127,18.9498226 Z" id="Shape" fill="#FFFFFF" fill-rule="nonzero"></path>
                    <path d="M17.2057603,13.0909091 L6.24956582,13.0909091 C5.81004554,13.0909091 5.45454545,13.4564273 5.45454545,13.9090909 C5.45454545,14.3617545 5.81004554,14.7272727 6.24956582,14.7272727 L17.2058091,14.7272727 C17.6443535,14.7272727 18,14.3617545 18,13.9090909 C18,13.4564273 17.6444023,13.0909091 17.2057603,13.0909091 Z" id="Path" fill="#FFFFFF" fill-rule="nonzero"></path>
                    <path d="M15.5773372,16.3636364 L7.87720823,16.3636364 C7.44281177,16.3636364 7.09090909,16.7291546 7.09090909,17.1818182 C7.09090909,17.6335772 7.44281177,18 7.87720823,18 L15.5772889,18 C16.0116854,18 16.3636364,17.6335772 16.3636364,17.1818182 C16.3636364,16.7291546 16.0117337,16.3636364 15.5773372,16.3636364 Z" id="Path" fill="#FFFFFF" fill-rule="nonzero"></path>
                </g>
            </g>
        </g>
    </g>
</svg>